<svg xmlns="http://www.w3.org/2000/svg" viewBox="0 0 512 512" fill="none">
  <defs>
    <linearGradient id="cyanBlue" x1="0%" y1="0%" x2="100%" y2="100%">
      <stop offset="0%" stop-color="#22d3ee" />
      <stop offset="100%" stop-color="#6366f1" />
    </linearGradient>
    <linearGradient id="darkBg" x1="0%" y1="0%" x2="100%" y2="100%">
      <stop offset="0%" stop-color="#0f172a" />
      <stop offset="100%" stop-color="#020617" />
    </linearGradient>
  </defs>
  <rect width="512" height="512" rx="110" fill="url(#darkBg)" />
  <!-- Hotel Base -->
  <path d="M170 380 L170 190 Q170 170 190 170 L320 170 Q340 170 340 190 L340 380" stroke="url(#cyanBlue)" stroke-width="32" stroke-linecap="round" stroke-linejoin="round"/>
  <!-- Door -->
  <path d="M224 380 L224 310 Q224 290 240 290 L272 290 Q288 290 288 310 L288 380" stroke="url(#cyanBlue)" stroke-width="24" stroke-linecap="round" stroke-linejoin="round"/>
  <!-- Windows -->
  <rect x="200" y="220" width="30" height="30" rx="8" fill="url(#cyanBlue)" />
  <rect x="282" y="220" width="30" height="30" rx="8" fill="url(#cyanBlue)" />
  <!-- AI Brain / Sparkle Network -->
  <circle cx="370" cy="140" r="16" fill="#38bdf8" />
  <circle cx="430" cy="180" r="12" fill="#818cf8" />
  <circle cx="390" cy="230" r="12" fill="#22d3ee" />
  <path d="M370 140 L430 180 L390 230 Z" stroke="#38bdf8" stroke-width="4" stroke-linejoin="round" />
  <!-- Left Sparkle -->
  <path d="M110 110 L115 130 L135 135 L115 140 L110 160 L105 140 L85 135 L105 130 Z" fill="#818cf8" />
</svg>